<svg xmlns="http://www.w3.org/2000/svg" viewBox="0 0 31.38 17.78"><defs><style>.cls-1{fill:none;stroke:#c64dbb;stroke-miterlimit:10;stroke-width:0.85px;}.cls-2{fill:#c64dbb;}</style></defs><title>RDOSTA  1</title><g id="图层_2" data-name="图层 2"><g id="图层_1-2" data-name="图层 1"><circle class="cls-1" cx="8.79" cy="8.79" r="8.36"/><path class="cls-2" d="M20.69,13.07a1.57,1.57,0,0,0-.81-.2H18.62v4.86h1.26a1.44,1.44,0,0,0,.82-.22,1.28,1.28,0,0,0,.51-.61,2.31,2.31,0,0,0,.17-.91V14.61a2.22,2.22,0,0,0-.18-.94A1.25,1.25,0,0,0,20.69,13.07ZM20.64,16a.91.91,0,0,1-.2.62.71.71,0,0,1-.54.22h-.56v-3.1h.56a.67.67,0,0,1,.54.22.88.88,0,0,1,.2.61Z"/><path class="cls-2" d="M23.42,15.89H24V16a1.26,1.26,0,0,1-.08.46.64.64,0,0,1-.23.3.54.54,0,0,1-.33.1.65.65,0,0,1-.35-.09.67.67,0,0,1-.23-.27,1,1,0,0,1-.08-.4V14.63a1.06,1.06,0,0,1,.08-.45.79.79,0,0,1,.22-.31.57.57,0,0,1,.34-.1.54.54,0,0,1,.25.06.56.56,0,0,1,.21.17.58.58,0,0,1,.13.26h.78a2.2,2.2,0,0,0-.26-.76A1.54,1.54,0,0,0,24,13a1.16,1.16,0,0,0-.63-.18,1.21,1.21,0,0,0-.73.22,1.43,1.43,0,0,0-.48.64,2.34,2.34,0,0,0-.17,1v1.44a2.13,2.13,0,0,0,.17.9,1.4,1.4,0,0,0,.49.6,1.31,1.31,0,0,0,.74.21,1.21,1.21,0,0,0,.72-.23,1.46,1.46,0,0,0,.49-.64,2.52,2.52,0,0,0,.17-.95V15H23.42Z"/><path class="cls-2" d="M27.6,13.05a1.11,1.11,0,0,0-.63-.18H25.45v4.86h.71V15.84H27a1.11,1.11,0,0,0,.63-.18,1.21,1.21,0,0,0,.42-.52,2.1,2.1,0,0,0,0-1.56A1.24,1.24,0,0,0,27.6,13.05Zm-.23,1.62a.61.61,0,0,1-.15.22A.37.37,0,0,1,27,15h-.83V13.75H27a.38.38,0,0,1,.23.08.47.47,0,0,1,.15.21.79.79,0,0,1,.06.32A.75.75,0,0,1,27.37,14.67Z"/><path class="cls-2" d="M31.21,15.52a1,1,0,0,0-.4-.42,2.93,2.93,0,0,0-.6-.22H30.1l-.39-.12a.58.58,0,0,1-.23-.18.54.54,0,0,1-.09-.33h0a.48.48,0,0,1,.18-.39.84.84,0,0,1,.51-.14,1.14,1.14,0,0,1,.46.11,1.81,1.81,0,0,1,.46.3l.3-.77a2.14,2.14,0,0,0-.39-.28,2.09,2.09,0,0,0-.41-.17,1.64,1.64,0,0,0-.42-.06,1.61,1.61,0,0,0-.76.17,1.18,1.18,0,0,0-.48.51,1.83,1.83,0,0,0-.16.81h0a1.54,1.54,0,0,0,.17.82,1,1,0,0,0,.43.41,3.4,3.4,0,0,0,.63.19H30l.35.09a.58.58,0,0,1,.23.17.49.49,0,0,1,.08.31h0a.5.5,0,0,1-.19.43.87.87,0,0,1-.54.15,1.48,1.48,0,0,1-.59-.12,1.43,1.43,0,0,1-.51-.36l-.33.76a2.08,2.08,0,0,0,.4.32,2.33,2.33,0,0,0,.49.21,2,2,0,0,0,.54.07,1.73,1.73,0,0,0,.78-.17,1.23,1.23,0,0,0,.5-.51,1.78,1.78,0,0,0,.17-.8h0A1.56,1.56,0,0,0,31.21,15.52Z"/></g></g></svg>