<svg xmlns="http://www.w3.org/2000/svg" viewBox="0 0 38.23 29.08"><defs><style>.cls-1{fill:#c64dbb;}.cls-2,.cls-4{fill:none;stroke:#d4b1dd;stroke-miterlimit:10;}.cls-2{stroke-width:1.68px;}.cls-3{fill:#d4b1dd;}.cls-4{stroke-linecap:round;stroke-width:2.52px;}</style></defs><title>RSRDEF</title><g id="图层_2" data-name="图层 2"><g id="图层_1-2" data-name="图层 1"><path class="cls-1" d="M37.27,17.31a3.2,3.2,0,0,0-4.41,0,3.07,3.07,0,0,0-1,2.24v.17a.17.17,0,0,0,.16.17H33a.17.17,0,0,0,.16-.17v-.17a1.9,1.9,0,0,1,3.79,0,2.59,2.59,0,0,1-1.1,2.12,2.28,2.28,0,0,0-1,.89,2.66,2.66,0,0,0-.4,1.41v2.37a.17.17,0,0,0,.16.17h.95a.17.17,0,0,0,.16-.17v-2.4a1,1,0,0,1,.61-1,4,4,0,0,0,1.92-3.42,3.07,3.07,0,0,0-1-2.24Z"/><path class="cls-1" d="M36.5,28.2c0-.45-.56-.81-1.24-.81S34,27.75,34,28.2v0a0,0,0,0,0,0,0v.17a.57.57,0,0,0,.54.59H36a.57.57,0,0,0,.54-.59v-.17s0,0,0,0Z"/><ellipse class="cls-2" cx="15.25" cy="14.54" rx="14.41" ry="13.7"/><path class="cls-3" d="M17.58,22.9H12.91s-.6,0-.6,1.44h5.88C18.19,22.9,17.58,22.9,17.58,22.9Z"/><line class="cls-4" x1="15.25" y1="6.61" x2="15.25" y2="19.01"/></g></g></svg>