<svg xmlns="http://www.w3.org/2000/svg" viewBox="0 0 11.4 11.4"><defs><style>.cls-1{fill:#81c3e2;}</style></defs><title>UWTROC03</title><g id="图层_2" data-name="图层 2"><g id="图层_1-2" data-name="图层 1"><ellipse class="cls-1" cx="5.7" cy="5.66" rx="5.38" ry="5.28"/><path d="M6,.83V.3A.33.33,0,0,0,5.66,0,.34.34,0,0,0,5.3.3V.83Z"/><path d="M8.16,1.19V.66a.37.37,0,0,0-.72,0v.53Z"/><path d="M9.77,2.43V1.9a.34.34,0,0,0-.36-.3.34.34,0,0,0-.36.3v.53Z"/><path d="M11,4V3.5a.37.37,0,0,0-.72,0V4Z"/><path d="M11.4,6.07V5.54a.34.34,0,0,0-.36-.3.34.34,0,0,0-.36.3v.53Z"/><path d="M10.7,8.05V7.53a.37.37,0,0,0-.72,0v.52Z"/><path d="M9.77,9.75V9.23a.37.37,0,0,0-.72,0v.52Z"/><path d="M8,10.92v-.53a.37.37,0,0,0-.72,0v.53Z"/><path d="M6,11.4v-.53a.33.33,0,0,0-.36-.3.34.34,0,0,0-.36.3v.53Z"/><path d="M3.88,10.92v-.53a.33.33,0,0,0-.36-.3.33.33,0,0,0-.36.3v.53Z"/><path d="M2.27,9.75V9.23a.33.33,0,0,0-.36-.3.33.33,0,0,0-.36.3v.52Z"/><path d="M1.06,8.05V7.53a.33.33,0,0,0-.36-.3.33.33,0,0,0-.36.3v.52Z"/><path d="M.72,6.07V5.54a.34.34,0,0,0-.36-.3.34.34,0,0,0-.36.3v.53Z"/><path d="M1.21,4V3.5a.34.34,0,0,0-.36-.3.34.34,0,0,0-.36.3V4Z"/><path d="M2.13,2.43V1.9a.34.34,0,0,0-.36-.3.34.34,0,0,0-.36.3v.53Z"/><path d="M3.93,1.19V.66a.34.34,0,0,0-.36-.3.34.34,0,0,0-.36.3v.53Z"/><path d="M6.1,9.84V2.12a.36.36,0,0,0-.39-.3.36.36,0,0,0-.39.3V9.84Z"/><path d="M2.06,5.47H9.37A.51.51,0,0,1,9.87,6v.2a0,0,0,0,1,0,0H1.55a0,0,0,0,1,0,0V6A.51.51,0,0,1,2.06,5.47Z"/></g></g></svg>