<svg xmlns="http://www.w3.org/2000/svg" viewBox="0 0 45.59 11.36"><defs><style>.cls-1{fill:#88988b;}</style></defs><title>WATTUR</title><g id="图层_2" data-name="图层 2"><g id="图层_1-2" data-name="图层 1"><path class="cls-1" d="M.92,10.81C4,11.44,6.08,8.82,8,6.86s4.29-5.5,7.3-3.8l-.26-2c-.92.86-2.2,1.14-3,2.17a3.94,3.94,0,0,0-.66,3.39c.57,2.25,3.49,4.67,5.9,4.15a11.64,11.64,0,0,0,6.21-4.24,12,12,0,0,0,1.14-1.7,6.29,6.29,0,0,1,1-1.63,2.72,2.72,0,0,1,1.72-.59,7.13,7.13,0,0,1,1.13,0c.15,0,.94.23.64,0l-.33-1.24s-.81.67-1,.89a8.71,8.71,0,0,0-1.17,1.33,4.46,4.46,0,0,0-.82,3.24,5,5,0,0,0,4.73,3.92c2.65.12,4.94-1.6,6.5-3.58.86-1.09,1.47-2.36,2.33-3.44s3-.83,4.16-.55l-.77-1.87c-1,1.8-2.86,3.22-2.72,5.45S41.9,9.66,43.39,11c1.2,1.1,3-.7,1.8-1.81-.88-.8-2.76-1.43-2.65-2.84s1.77-2.66,2.39-3.81A1.29,1.29,0,0,0,44.16.69a9,9,0,0,0-5.38.25c-1.64.75-2.4,2.75-3.4,4.14S32.69,8.2,30.7,8.17c-1.83,0-3.09-1.75-1.91-3.32.79-1,3.1-2,2.42-3.66C30.61-.24,28.07,0,26.83.1A4.88,4.88,0,0,0,23,2.54a12.93,12.93,0,0,1-3.28,4.2,8.57,8.57,0,0,1-2.53,1.39A2.94,2.94,0,0,1,14.4,6.94a1.64,1.64,0,0,1,.11-2.54,21.34,21.34,0,0,0,2.37-1.54,1.3,1.3,0,0,0-.26-2C14-.65,11.27.12,9.15,2.12c-1.24,1.16-2.4,2.41-3.6,3.61-1,1-2.41,2.94-3.95,2.62S-.69,10.48.92,10.81Z"/></g></g></svg>