<svg xmlns="http://www.w3.org/2000/svg" viewBox="0 0 18.83 18.63"><defs><style>.cls-1,.cls-2,.cls-3,.cls-4{fill:none;stroke:#c64dbb;stroke-linecap:round;stroke-width:1.7px;}.cls-2{stroke-miterlimit:4;}</style></defs><title>RTPBCN</title><g id="图层_2" data-name="图层 2"><g id="图层_1-2" data-name="图层 1"><path id="路径_136" data-name="路径 136" class="cls-1" d="M8.17.85A12.82,12.82,0,0,0,5.71,2.1,24.24,24.24,0,0,0,3.06,4.59" style="fill:none;stroke:#c64dbb;stroke-linecap:round;stroke-width:1.7px"/><path id="路径_137" data-name="路径 137" class="cls-2" d="M1.54,6.6A9.2,9.2,0,0,0,.85,9.05c0,.07,0,.7,0,.81a8,8,0,0,0,.7,2.85" style="fill:none;stroke:#c64dbb;stroke-linecap:round;stroke-width:1.7px"/><path style="fill:none;stroke:#c64dbb;stroke-linecap:round;stroke-width:1.7px" id="路径_138" data-name="路径 138" class="cls-3" d="M3,14.12a17.34,17.34,0,0,0,2,2,21.89,21.89,0,0,0,3.24,1.56"/><path style="fill:none;stroke:#c64dbb;stroke-linecap:round;stroke-width:1.7px" id="路径_139" data-name="路径 139" class="cls-4" d="M11.21,17.78s2.27-1.1,3-1.62a8.53,8.53,0,0,0,2-2.24"/><path style="fill:none;stroke:#c64dbb;stroke-linecap:round;stroke-width:1.7px" id="路径_141" data-name="路径 141" class="cls-3" d="M11.47.88a22.84,22.84,0,0,1,2.58,1.51,10.73,10.73,0,0,1,2.23,2.34"/><path style="fill:none;stroke:#c64dbb;stroke-linecap:round;stroke-width:1.7px" id="路径_136-2" data-name="路径 136" class="cls-1" d="M17.56,12.05A10.15,10.15,0,0,0,18,9.8a21.2,21.2,0,0,0-.32-3"/></g></g></svg>