<svg xmlns="http://www.w3.org/2000/svg" viewBox="0 0 19.85 19.84"><defs><style>.cls-1{fill:#c64dbb;}.cls-2{fill:#fff;}</style></defs><title>ISODGR</title><g id="图层_2" data-name="图层 2"><g id="图层_1-2" data-name="图层 1"><path class="cls-1" d="M17.18,3.37l2.54,5.9a1.56,1.56,0,0,1,0,1.2l-2.36,5.91a1.51,1.51,0,0,1-.84.86l-5.87,2.48a1.54,1.54,0,0,1-1.19,0l-6-2.41a1.62,1.62,0,0,1-.85-.84L.13,10.57a1.56,1.56,0,0,1,0-1.2L2.47,3.46a1.56,1.56,0,0,1,.85-.86L9.18.12a1.56,1.56,0,0,1,1.2,0l5.95,2.41A1.59,1.59,0,0,1,17.18,3.37Z" style="fill:#c64dbb;"/><polygon class="cls-2" points="6.28 15.01 4.88 13.6 13.57 4.83 14.97 6.24 6.28 15.01" style="fill:#fff;"/><polygon class="cls-2" points="4.88 6.24 6.28 4.83 14.97 13.6 13.57 15.01 4.88 6.24" style="fill:#fff;"/></g></g></svg>